<?xml version="1.0" encoding="UTF-8" standalone="no"?>
<!DOCTYPE svg PUBLIC "-//W3C//DTD SVG 1.1//EN" "http://www.w3.org/Graphics/SVG/1.1/DTD/svg11.dtd">
<svg xmlns="http://www.w3.org/2000/svg" version="1.1" viewBox="120 420 790 200">
<g stroke-width="2.00" fill="none" stroke-linecap="butt">
<path stroke="#227ef2" vector-effect="non-scaling-stroke" d="
  M 258.33 444.92
  L 230.86 475.82"
/>
<path stroke="#17a9e8" vector-effect="non-scaling-stroke" d="
  M 283.52 470.30
  L 266.16 507.64"
/>
<path stroke="#17a9e8" vector-effect="non-scaling-stroke" d="
  M 168.64 520.71
  Q 155.16 507.65 143.13 492.91"
/>
<path stroke="#09d3d7" vector-effect="non-scaling-stroke" d="
  M 195.62 531.97
  L 168.76 544.05"
/>
<path stroke="#17a9e8" vector-effect="non-scaling-stroke" d="
  M 281.49 517.01
  Q 266.28 539.82 257.68 565.62"
/>
</g>
<path fill="#2766f6" d="
  M 258.33 444.92
  L 230.86 475.82
  C 225.22 470.20 220.50 464.87 213.55 459.95
  C 202.30 452.00 189.11 451.71 176.09 453.41
  A 0.26 0.26 0.0 0 1 175.88 452.97
  C 180.76 448.39 185.01 444.05 190.70 440.94
  Q 214.54 427.91 239.56 435.15
  Q 249.22 437.94 258.33 444.92
  Z"
/>
<path fill="#1c96ed" d="
  M 283.52 470.30
  L 266.16 507.64
  Q 262.94 507.85 261.88 506.87
  Q 252.48 498.28 230.86 475.82
  L 258.33 444.92
  L 283.52 470.30
  Z"
/>
<path fill="#1c96ed" d="
  M 168.64 520.71
  Q 155.16 507.65 143.13 492.91
  C 154.82 466.29 184.30 454.24 211.20 465.79
  Q 214.17 467.07 217.03 469.75
  A 1.36 1.34 -46.2 0 1 217.06 471.68
  L 168.64 520.71
  Z"
/>
<rect fill="#2a3841" x="435.72" y="462.55" width="14.64" height="94.60" rx="0.48"/>
<path fill="#2a3841" d="
  M 379.97 467.98
  Q 383.79 467.99 387.41 468.04
  A 0.58 0.57 78.2 0 1 387.92 468.38
  L 426.38 556.56
  A 0.47 0.47 0.0 0 1 425.95 557.22
  L 411.30 557.22
  A 0.53 0.52 77.8 0 1 410.82 556.90
  L 402.34 537.46
  A 0.93 0.92 -11.5 0 0 401.50 536.91
  Q 399.28 536.89 379.81 536.84
  Q 360.35 536.80 358.13 536.80
  A 0.93 0.92 11.8 0 0 357.28 537.35
  L 348.71 556.75
  A 0.53 0.52 -77.6 0 1 348.23 557.07
  L 333.58 557.00
  A 0.47 0.47 0.0 0 1 333.16 556.34
  L 372.03 468.34
  A 0.58 0.57 -77.9 0 1 372.54 468.01
  Q 376.16 467.97 379.97 467.98
  Z"
/>
<path fill="#11bce3" d="
  M 266.16 507.64
  L 283.52 470.30
  Q 296.68 484.01 300.00 488.00
  Q 306.67 496.01 309.80 506.20
  A 0.87 0.87 0.0 0 1 308.98 507.32
  L 266.16 507.64
  Z"
/>
<path fill="#ffffff" d="
  M 362.99 522.93
  L 379.17 484.77
  A 0.39 0.39 0.0 0 1 379.89 484.77
  L 396.07 522.93
  A 0.39 0.39 0.0 0 1 395.72 523.47
  L 363.34 523.47
  A 0.39 0.39 0.0 0 1 362.99 522.93
  Z"
/>
<path fill="#2a3841" d="
  M 583.10 538.34
  L 590.16 545.40
  A 0.71 0.70 -45.3 0 1 590.16 546.39
  Q 582.40 554.36 571.13 556.67
  C 563.85 558.16 554.90 557.79 548.04 554.91
  C 533.36 548.76 527.13 535.66 527.97 520.24
  C 528.63 508.15 535.05 497.68 545.95 492.27
  C 558.04 486.27 577.67 487.33 586.68 498.53
  C 593.33 506.79 594.35 517.41 593.91 528.24
  A 0.50 0.49 -88.8 0 1 593.42 528.72
  L 543.35 528.72
  A 0.58 0.58 0.0 0 0 542.79 529.46
  C 548.05 548.04 569.22 550.25 582.13 538.32
  A 0.70 0.69 45.9 0 1 583.10 538.34
  Z"
/>
<path fill="#2a3841" d="
  M 621.76 501.26
  C 628.18 489.43 642.48 486.88 654.65 489.87
  C 665.63 492.57 671.27 502.98 671.28 514.01
  Q 671.31 545.54 671.28 556.51
  A 0.63 0.63 0.0 0 1 670.65 557.14
  L 657.08 557.14
  A 0.38 0.37 -0.0 0 1 656.70 556.77
  Q 656.60 548.56 656.70 519.00
  C 656.74 509.34 650.95 502.97 641.32 502.48
  C 632.92 502.05 625.85 506.76 622.58 514.52
  Q 621.13 517.97 621.17 525.72
  Q 621.31 552.63 621.21 556.56
  A 0.60 0.60 0.0 0 1 620.61 557.14
  L 607.00 557.14
  A 0.46 0.46 0.0 0 1 606.54 556.68
  L 606.54 489.86
  A 0.56 0.56 0.0 0 1 607.10 489.30
  L 620.63 489.30
  A 0.59 0.59 0.0 0 1 621.22 489.89
  L 621.22 501.12
  A 0.29 0.29 0.0 0 0 621.76 501.26
  Z"
/>
<path fill="#2a3841" d="
  M 735.82 508.80
  Q 724.05 498.47 709.67 503.01
  C 699.28 506.30 695.30 518.02 697.30 528.47
  C 699.70 541.04 710.43 546.63 722.70 544.41
  Q 730.94 542.91 736.44 537.11
  A 0.51 0.51 0.0 0 1 737.17 537.10
  L 744.16 544.09
  A 1.28 1.27 42.6 0 1 744.24 545.81
  Q 738.85 552.21 731.02 555.03
  C 721.72 558.37 710.59 558.48 701.68 554.71
  C 686.77 548.38 679.95 532.68 682.50 517.02
  C 686.23 494.14 706.61 484.85 727.89 490.15
  Q 737.23 492.47 743.86 499.40
  A 0.58 0.57 43.8 0 1 743.88 500.17
  L 736.62 508.74
  A 0.56 0.56 0.0 0 1 735.82 508.80
  Z"
/>
<path fill="#2a3841" d="
  M 786.32 488.75
  C 806.84 488.64 821.74 502.17 821.85 522.92
  C 821.96 543.66 807.20 557.35 786.68 557.46
  C 766.17 557.57 751.26 544.04 751.15 523.29
  C 751.04 502.55 765.80 488.86 786.32 488.75
  Z"
/>
<path fill="#2a3841" d="
  M 526.40 489.81
  L 500.66 556.88
  A 0.37 0.37 0.0 0 1 500.32 557.12
  L 485.78 557.12
  A 0.37 0.37 0.0 0 1 485.44 556.88
  L 459.48 489.81
  A 0.37 0.37 0.0 0 1 459.83 489.31
  L 474.33 489.31
  A 0.37 0.37 0.0 0 1 474.68 489.56
  L 493.03 541.58
  A 0.37 0.37 0.0 0 0 493.73 541.58
  L 511.81 489.56
  A 0.37 0.37 0.0 0 1 512.16 489.31
  L 526.05 489.31
  A 0.37 0.37 0.0 0 1 526.40 489.81
  Z"
/>
<path fill="#11bce3" d="
  M 143.13 492.91
  Q 155.16 507.65 168.64 520.71
  Q 156.06 536.67 159.86 556.39
  A 0.79 0.79 0.0 0 1 158.55 557.12
  Q 138.10 538.46 139.08 511.75
  Q 139.43 502.04 143.13 492.91
  Z"
/>
<path fill="#ffffff" d="
  M 543.04 518.10
  A 0.18 0.18 0.0 0 1 542.86 517.92
  L 542.86 517.78
  A 18.63 17.28 -0.2 0 1 561.43 500.43
  L 562.39 500.43
  A 18.63 17.28 -0.2 0 1 581.08 517.64
  L 581.08 517.78
  A 0.18 0.18 0.0 0 1 580.90 517.96
  L 543.04 518.10
  Z"
/>
<ellipse fill="#ffffff" cx="0.00" cy="0.00" transform="translate(786.50,523.26) rotate(-90.6)" rx="22.23" ry="20.90"/>
<path fill="#11bce3" d="
  M 195.62 531.97
  L 168.76 544.05
  Q 169.10 528.89 178.74 517.64
  A 1.81 1.80 -46.9 0 1 181.39 517.55
  L 195.62 531.97
  Z"
/>
<path fill="#1c96ed" d="
  M 281.49 517.01
  Q 266.28 539.82 257.68 565.62
  Q 243.54 566.78 231.72 559.84
  Q 228.99 558.23 226.45 554.93
  A 0.99 0.99 0.0 0 1 226.63 553.55
  Q 228.94 551.77 230.84 549.84
  Q 245.08 535.39 262.18 518.43
  Q 263.49 517.14 265.50 517.10
  Q 273.47 516.94 281.49 517.01
  Z"
/>
<path fill="#11bce3" d="
  M 257.68 565.62
  Q 266.28 539.82 281.49 517.01
  L 309.01 517.14
  A 0.68 0.68 0.0 0 1 309.68 517.94
  C 308.80 523.16 306.62 527.18 303.78 532.80
  C 296.45 547.33 284.42 558.81 268.50 563.73
  Q 262.56 565.57 257.68 565.62
  Z"
/>
<path fill="#01eacb" d="
  M 168.76 544.05
  L 195.62 531.97
  Q 210.56 547.35 225.67 562.57
  C 235.65 572.62 249.00 576.97 262.93 575.27
  A 0.72 0.72 0.0 0 1 263.60 576.42
  Q 262.78 577.50 261.65 578.41
  Q 247.68 589.71 229.12 592.62
  Q 227.14 592.93 218.60 592.79
  C 207.17 592.59 193.84 588.15 185.23 580.63
  Q 179.19 575.36 174.19 566.31
  Q 168.08 555.26 168.76 544.05
  Z"
/>
<path fill="#2a3841" d="
  M 882.24 542.53
  L 882.24 533.32
  A 0.54 0.54 0.0 0 1 882.78 532.78
  L 885.71 532.78
  A 0.58 0.58 0.0 0 1 886.29 533.36
  L 886.29 558.44
  A 0.65 0.65 0.0 0 1 885.64 559.09
  L 883.02 559.09
  A 0.80 0.79 90.0 0 1 882.23 558.29
  L 882.23 556.58
  A 0.28 0.28 0.0 0 0 881.77 556.37
  Q 881.25 556.81 881.07 557.05
  C 879.55 559.17 875.85 559.49 873.45 558.98
  C 864.97 557.17 864.28 544.64 871.49 541.00
  C 874.88 539.28 879.29 539.78 881.59 542.75
  A 0.36 0.36 0.0 0 0 882.24 542.53
  Z"
/>
<path fill="#2a3841" d="
  M 836.66 558.50
  L 836.66 534.86
  A 0.60 0.60 0.0 0 1 837.26 534.26
  L 840.35 534.26
  A 0.60 0.60 0.0 0 1 840.95 534.86
  L 840.95 554.69
  A 0.60 0.60 0.0 0 0 841.55 555.29
  L 851.01 555.29
  A 0.60 0.60 0.0 0 1 851.61 555.89
  L 851.61 558.50
  A 0.60 0.60 0.0 0 1 851.01 559.10
  L 837.26 559.10
  A 0.60 0.60 0.0 0 1 836.66 558.50
  Z"
/>
<path fill="#2a3841" d="
  M 859.45 536.34
  L 859.45 540.39
  A 0.59 0.59 0.0 0 0 860.04 540.98
  L 863.89 540.98
  A 1.20 1.20 0.0 0 1 865.09 542.18
  L 865.09 542.86
  A 1.11 1.11 0.0 0 1 863.98 543.97
  L 860.04 543.97
  A 0.57 0.57 0.0 0 0 859.47 544.54
  L 859.47 554.04
  A 1.47 1.47 0.0 0 0 861.15 555.49
  L 863.24 555.19
  A 1.70 1.69 24.8 0 1 864.39 558.30
  Q 863.04 559.14 860.75 559.17
  Q 855.65 559.22 855.52 554.00
  Q 855.51 553.49 855.44 544.64
  A 0.81 0.81 0.0 0 0 854.46 543.86
  Q 852.04 544.40 852.75 541.73
  A 0.95 0.95 0.0 0 1 853.67 541.03
  L 854.92 541.03
  A 0.54 0.54 0.0 0 0 855.46 540.49
  L 855.46 536.42
  A 0.65 0.65 0.0 0 1 856.11 535.77
  L 858.88 535.77
  A 0.57 0.57 0.0 0 1 859.45 536.34
  Z"
/>
<ellipse fill="#ffffff" cx="0.00" cy="0.00" transform="translate(876.44,549.66) rotate(-89.4)" rx="6.19" ry="5.80"/>
</svg>
