<svg xmlns="http://www.w3.org/2000/svg" viewBox="0 0 64 64" fill="none">
  <defs>
    <linearGradient id="g" x1="8" y1="6" x2="56" y2="58" gradientUnits="userSpaceOnUse">
      <stop stop-color="#1d4ed8"/>
      <stop offset="0.45" stop-color="#2563eb"/>
      <stop offset="1" stop-color="#06b6d4"/>
    </linearGradient>
    <mask id="m" maskUnits="userSpaceOnUse" x="0" y="0" width="64" height="64">
      <rect width="64" height="64" fill="#fff"/>
      <path fill="#000" d="M32 25.2 38.4 32 32 38.8 25.6 32 32 25.2Z"/>
    </mask>
  </defs>
  <g fill="url(#g)" mask="url(#m)">
    <path d="M32 32c0-9.2 4.5-17.4 11.5-22.2l7.2 12.4c-4 2.7-6.6 7.3-6.6 12.4 0 1.8.4 3.5.9 5.1L32 32Z"/>
    <path d="M32 32c9.2 0 17.4-4.5 22.2-11.5l-12.4-7.2c-2.7 4-7.3 6.6-12.4 6.6-1.8 0-3.5-.4-5.1-.9L32 32Z"/>
    <path d="M32 32c0 9.2-4.5 17.4-11.5 22.2l-7.2-12.4c4-2.7 6.6-7.3 6.6-12.4 0-1.8-.4-3.5-.9-5.1L32 32Z"/>
    <path d="M32 32c-9.2 0-17.4 4.5-22.2 11.5l12.4 7.2c2.7-4 7.3-6.6 12.4-6.6 1.8 0 3.5.4 5.1.9L32 32Z"/>
  </g>
</svg>
