<?xml version="1.0" encoding="UTF-8" standalone="no"?>
<!DOCTYPE svg PUBLIC "-//W3C//DTD SVG 1.1//EN" "http://www.w3.org/Graphics/SVG/1.1/DTD/svg11.dtd">
<svg xmlns="http://www.w3.org/2000/svg" version="1.1" viewBox="36 49 439 406">
<g stroke-width="2.00" fill="none" stroke-linecap="butt">
<path stroke="#227ef2" vector-effect="non-scaling-stroke" d="
  M 343.93 80.19
  L 274.29 158.53"
/>
<path stroke="#17a9e8" vector-effect="non-scaling-stroke" d="
  M 407.74 144.40
  L 363.72 239.36"
/>
<path stroke="#17a9e8" vector-effect="non-scaling-stroke" d="
  M 116.98 272.18
  Q 91.46 247.26 68.12 220.15
  Q 60.25 211.00 52.10 201.69"
/>
<path stroke="#17a9e8" vector-effect="non-scaling-stroke" d="
  M 401.95 262.73
  Q 402.35 263.32 401.95 263.92
  Q 363.71 321.90 342.29 386.05"
/>
<path stroke="#09d3d7" vector-effect="non-scaling-stroke" d="
  M 185.19 300.63
  L 117.06 331.22"
/>
</g>
<path fill="#2766f6" d="
  M 343.93 80.19
  L 274.29 158.53
  C 258.02 142.38 242.35 125.35 223.08 113.73
  C 201.99 101.00 174.95 98.34 150.00 100.39
  Q 144.89 100.81 135.52 101.75
  A 0.50 0.50 0.0 0 1 135.12 100.90
  C 147.73 88.61 157.53 78.71 172.26 70.53
  C 195.89 57.42 222.99 49.07 249.92 49.05
  C 270.02 49.03 292.13 52.72 310.52 60.50
  Q 326.92 67.43 343.93 80.19
  Z"
/>
<path fill="#1c96ed" d="
  M 407.74 144.40
  L 363.72 239.36
  Q 361.70 239.21 358.27 239.21
  Q 356.35 239.21 353.91 237.93
  A 4.23 4.15 80.2 0 1 352.98 237.26
  C 325.01 210.74 305.41 190.49 274.29 158.53
  L 343.93 80.19
  L 407.74 144.40
  Z"
/>
<path fill="#1c96ed" d="
  M 116.98 272.18
  Q 91.46 247.26 68.12 220.15
  Q 60.25 211.00 52.10 201.69
  Q 54.53 197.00 57.31 191.74
  Q 70.90 165.93 93.40 148.67
  Q 107.59 137.79 124.55 131.02
  C 154.74 118.98 187.70 119.28 218.32 130.66
  Q 230.84 135.31 239.32 143.45
  Q 241.74 145.77 239.14 148.40
  Q 177.96 210.23 116.98 272.18
  Z"
/>
<path fill="#11bce3" d="
  M 363.72 239.36
  L 407.74 144.40
  Q 419.43 156.64 430.99 168.77
  Q 441.72 180.04 449.79 189.97
  Q 466.22 210.19 473.97 234.81
  Q 474.48 236.43 473.98 237.37
  Q 473.51 238.26 471.69 238.27
  Q 418.38 238.68 363.72 239.36
  Z"
/>
<path fill="#11bce3" d="
  M 52.10 201.69
  Q 60.25 211.00 68.12 220.15
  Q 91.46 247.26 116.98 272.18
  Q 104.58 287.76 98.34 305.32
  Q 91.14 325.59 92.84 348.75
  Q 93.11 352.44 94.62 362.59
  A 1.73 1.64 52.1 0 1 94.54 363.40
  Q 93.86 365.27 92.33 364.97
  A 1.84 1.82 -17.9 0 1 91.44 364.52
  C 67.39 342.67 50.47 315.37 44.37 283.14
  Q 36.65 242.32 52.10 201.69
  Z"
/>
<path fill="#1c96ed" d="
  M 401.95 262.73
  Q 402.35 263.32 401.95 263.92
  Q 363.71 321.90 342.29 386.05
  Q 307.65 388.66 277.91 371.97
  C 271.68 368.47 267.21 364.28 263.17 358.82
  A 2.34 2.33 -37.7 0 1 263.59 355.61
  Q 269.40 350.96 273.41 346.91
  Q 332.79 287.01 354.38 265.96
  Q 357.58 262.84 363.00 262.82
  Q 382.49 262.75 401.95 262.73
  Z"
/>
<path fill="#11bce3" d="
  M 342.29 386.05
  Q 363.71 321.90 401.95 263.92
  Q 402.35 263.32 401.95 262.73
  Q 437.09 263.31 472.23 263.23
  Q 474.34 263.22 473.84 265.87
  C 471.28 279.66 465.15 290.96 458.34 304.11
  C 439.47 340.56 409.61 367.88 370.45 380.97
  Q 356.88 385.51 342.29 386.05
  Z"
/>
<path fill="#11bce3" d="
  M 185.19 300.63
  L 117.06 331.22
  Q 118.16 294.31 140.99 266.28
  Q 143.13 263.65 144.77 263.11
  Q 147.22 262.30 149.31 264.43
  Q 167.22 282.62 185.19 300.63
  Z"
/>
<path fill="#01eacb" d="
  M 185.19 300.63
  Q 231.62 348.62 261.91 378.84
  Q 284.65 401.53 316.25 408.69
  C 329.03 411.58 343.05 411.94 355.73 410.55
  Q 356.32 410.48 356.93 410.90
  A 1.60 1.59 36.4 0 1 357.29 413.21
  Q 355.01 416.07 351.84 418.61
  Q 322.10 442.46 284.03 451.48
  Q 268.94 455.05 254.34 455.03
  Q 236.39 454.99 224.39 453.05
  Q 203.12 449.61 182.68 439.66
  Q 159.13 428.18 143.46 407.17
  C 126.73 384.74 115.88 359.89 117.06 331.22
  L 185.19 300.63
  Z"
/>
</svg>
